<?xml version="1.0" standalone="no"?>
<!DOCTYPE svg PUBLIC "-//W3C//DTD SVG 20010904//EN"
 "http://www.w3.org/TR/2001/REC-SVG-20010904/DTD/svg10.dtd">
<svg version="1.0" xmlns="http://www.w3.org/2000/svg"
 width="1134.000000pt" height="1134.000000pt" viewBox="0 0 1134.000000 1134.000000"
 preserveAspectRatio="xMidYMid meet">
<metadata>
Created by potrace 1.11, written by Peter Selinger 2001-2013
</metadata>
<g transform="translate(0.000000,1134.000000) scale(0.100000,-0.100000)"
fill="#000000" stroke="none">
<path d="M5489 9716 c-2 -2 -49 -6 -104 -10 -55 -3 -111 -8 -125 -10 -14 -2
-52 -8 -85 -12 -33 -4 -64 -8 -70 -9 -9 -1 -79 -12 -130 -20 -18 -3 -144 -30
-185 -40 -227 -53 -478 -133 -617 -196 -24 -10 -45 -19 -48 -19 -7 0 -166 -75
-270 -127 -946 -476 -1697 -1353 -2028 -2368 -60 -183 -126 -445 -142 -560 -8
-59 -16 -110 -20 -130 -2 -11 -7 -47 -10 -80 -4 -33 -8 -71 -11 -85 -24 -142
-23 -613 2 -850 5 -54 52 -355 61 -395 2 -11 6 -30 9 -43 2 -13 21 -85 40
-160 138 -535 399 -1059 745 -1499 220 -279 549 -593 824 -788 39 -27 72 -53
73 -57 2 -5 8 -8 14 -8 6 0 25 -11 42 -24 64 -48 289 -177 442 -254 408 -204
842 -336 1299 -396 276 -36 658 -40 930 -11 90 10 150 17 165 20 8 1 38 6 65
10 28 5 52 9 55 10 8 2 105 17 107 17 2 -1 17 4 35 9 18 5 47 12 63 15 63 10
266 67 395 111 356 119 691 286 1008 502 110 76 355 266 413 321 198 191 291
286 384 394 419 490 712 1059 865 1681 21 88 46 203 55 255 9 52 18 106 20
120 3 14 7 50 11 80 3 30 7 65 9 78 26 162 26 741 1 892 -5 29 -14 95 -22 165
-10 82 -72 372 -105 490 -260 919 -830 1714 -1624 2266 -441 307 -1021 551
-1530 643 -16 3 -41 8 -55 11 -14 3 -41 7 -60 10 -19 3 -44 6 -55 9 -19 3 -56
8 -165 21 -25 3 -63 8 -85 11 -49 6 -580 15 -586 10z m541 -239 c14 -4 57 -9
95 -12 77 -7 113 -12 195 -25 30 -5 71 -12 90 -15 131 -22 358 -81 523 -137
687 -229 1316 -665 1769 -1226 456 -565 734 -1208 832 -1929 41 -295 41 -710
1 -993 -2 -19 -7 -55 -11 -80 -11 -87 -43 -246 -69 -350 -216 -863 -715 -1617
-1426 -2156 -89 -67 -351 -244 -362 -244 -3 0 -31 -16 -63 -35 -84 -51 -301
-156 -434 -211 -309 -126 -704 -230 -991 -259 -24 -2 -64 -7 -89 -9 -163 -19
-432 -23 -630 -12 -590 36 -1208 229 -1726 541 -298 180 -508 345 -759 599
-362 364 -641 784 -833 1252 -63 153 -155 437 -177 544 -2 8 -10 47 -19 85
-18 80 -44 224 -51 275 -2 19 -7 60 -11 90 -4 30 -8 62 -10 72 -21 120 -21
604 1 778 1 14 6 54 10 90 3 36 8 72 10 80 2 8 7 35 11 60 10 68 12 83 18 110
3 14 11 50 17 80 15 76 52 216 89 335 182 589 511 1133 954 1578 106 106 214
204 274 251 15 11 29 23 32 27 16 20 249 186 358 255 297 189 581 320 932 433
79 25 323 86 405 100 33 6 71 13 84 16 14 2 61 9 105 15 45 6 95 13 111 15 17
2 71 7 120 11 50 3 92 8 93 9 6 6 506 -3 532 -8z"/>
<path d="M4946 9228 c-41 -93 -46 -108 -39 -108 13 0 103 108 103 123 0 13
-20 27 -38 27 -4 0 -16 -19 -26 -42z"/>
<path d="M5006 9205 c-20 -19 -52 -61 -72 -92 l-36 -57 -14 32 c-7 18 -15 32
-17 32 -3 0 -6 -42 -7 -92 -3 -142 -3 -165 4 -203 6 -30 10 -34 22 -25 9 8 12
22 8 39 -10 45 -12 135 -2 161 5 14 21 39 36 55 15 17 23 25 19 18 -5 -6 -6
-21 -2 -32 3 -11 1 -29 -5 -40 -8 -16 -7 -30 5 -57 14 -35 14 -37 -10 -65 -40
-49 -8 -79 55 -53 46 20 59 18 53 -7 -4 -14 0 -27 11 -35 10 -7 20 -29 22 -50
5 -52 18 -63 52 -43 26 15 29 15 46 -8 24 -33 15 -50 -34 -63 -53 -14 -86 -9
-159 29 -34 17 -61 28 -61 25 0 -22 37 -67 76 -93 52 -34 89 -38 174 -20 41 9
55 18 75 47 31 46 32 62 1 62 -24 0 -76 34 -76 51 0 5 11 27 25 49 18 29 32
40 50 40 17 0 23 -4 19 -14 -7 -19 21 -24 70 -14 21 5 47 6 57 3 29 -10 24 22
-10 56 -47 47 -90 41 -191 -26 -59 -39 -86 -52 -95 -45 -14 12 -11 60 11 175
38 197 26 295 -35 295 -21 0 -41 -10 -65 -35z m59 -25 c9 -15 9 -132 0 -205
-6 -56 -9 -61 -41 -77 -46 -24 -61 -23 -39 2 10 11 23 20 28 20 5 0 16 8 23
18 11 14 9 20 -9 40 l-21 22 22 20 c27 25 20 44 -24 65 -38 18 -38 19 15 78
27 29 36 33 46 17z"/>
<path d="M6313 9156 c-40 -27 -47 -52 -21 -78 19 -19 29 -20 147 -15 70 3 140
12 157 19 92 40 31 80 -111 73 -61 -4 -96 -1 -114 8 -24 12 -31 11 -58 -7z"/>
<path d="M6353 8982 c-38 -37 -121 -178 -91 -154 9 7 33 14 54 15 36 2 42 7
71 57 36 58 45 120 18 120 -8 0 -32 -17 -52 -38z"/>
<path d="M3836 8917 c-15 -11 -16 -19 -7 -62 5 -28 13 -63 16 -80 4 -16 10
-39 15 -50 5 -11 10 -27 13 -35 2 -8 4 17 5 56 0 39 6 89 12 112 7 22 10 48 7
56 -8 19 -37 21 -61 3z"/>
<path d="M6051 8799 c-30 -48 -26 -90 7 -97 7 -1 86 -4 175 -6 155 -3 165 -5
236 -35 40 -17 81 -31 91 -31 30 0 43 26 37 73 -8 55 -44 88 -95 85 -35 -1
-88 5 -155 18 -16 3 -72 8 -125 10 -53 2 -109 6 -124 10 -23 5 -30 1 -47 -27z"/>
<path d="M3975 8753 c-17 -15 -45 -49 -63 -75 -18 -26 -41 -54 -53 -61 -18
-13 -19 -16 -4 -31 23 -23 42 -20 71 11 31 34 87 146 82 167 -2 14 -8 12 -33
-11z"/>
<path d="M7571 8691 c-10 -6 -3 -9 20 -9 19 0 55 -5 79 -12 38 -10 42 -14 25
-20 -12 -4 -32 -24 -45 -44 -14 -20 -34 -39 -45 -41 -20 -6 -223 30 -234 40
-3 3 0 15 7 26 12 18 10 19 -15 13 -38 -9 -73 -32 -73 -47 0 -28 89 -62 189
-72 30 -3 56 -7 58 -8 2 -2 -19 -23 -47 -46 l-50 -42 -47 16 c-27 9 -81 22
-121 29 -62 11 -76 10 -88 -1 -52 -53 40 -120 144 -106 30 4 43 3 39 -4 -4 -6
-19 -9 -34 -7 -20 3 -23 2 -10 -4 15 -6 10 -14 -35 -53 -68 -58 -80 -65 -71
-43 4 12 3 15 -5 10 -10 -6 -32 -67 -32 -88 0 -20 46 -4 74 25 17 18 56 52 87
75 46 35 61 41 86 36 19 -4 42 0 62 10 37 19 41 34 7 31 -23 -3 -55 10 -46 18
90 80 175 138 205 140 46 4 69 25 37 34 l-22 5 25 26 c14 13 25 36 25 49 0 20
3 22 19 13 49 -26 82 -1 51 38 -16 20 -27 22 -112 22 -51 0 -99 -4 -107 -9z"/>
<path d="M4865 8660 c-8 -16 -15 -39 -15 -51 0 -22 1 -22 30 6 33 31 39 59 15
69 -10 3 -20 -5 -30 -24z"/>
<path d="M4010 8583 c-14 -10 -34 -25 -44 -35 -11 -10 -23 -18 -28 -18 -13 0
-9 -30 5 -36 36 -13 107 42 107 83 0 27 -7 29 -40 6z"/>
<path d="M3696 8547 c-42 -10 -51 -16 -58 -42 -13 -44 -1 -160 21 -203 11 -20
30 -48 42 -61 l23 -25 6 24 c5 22 10 17 43 -41 43 -79 57 -91 93 -87 43 5 49
25 34 122 l-13 86 -22 -29 -21 -29 -38 46 c-42 52 -43 75 -9 165 l18 49 -24
19 c-26 21 -27 21 -95 6z"/>
<path d="M4020 8473 c-25 -19 -47 -36 -48 -38 -8 -8 11 -45 23 -45 26 0 90 99
74 114 -2 2 -24 -12 -49 -31z"/>
<path d="M5499 8486 c-2 -2 -38 -7 -79 -10 -86 -8 -122 -13 -165 -20 -16 -3
-46 -8 -65 -11 -157 -26 -435 -112 -620 -192 -692 -300 -1259 -892 -1526
-1593 -76 -198 -143 -453 -160 -605 -3 -33 -8 -63 -10 -66 -23 -39 -23 -679 0
-718 2 -3 6 -28 10 -56 22 -186 116 -526 189 -686 78 -171 104 -223 158 -317
307 -535 792 -967 1355 -1208 57 -24 106 -44 108 -44 3 0 17 -5 33 -12 15 -6
30 -12 33 -13 3 -1 50 -15 105 -33 92 -29 227 -63 300 -77 203 -36 339 -49
540 -48 144 0 302 8 352 17 10 2 46 8 78 12 33 4 62 8 65 9 3 1 25 5 50 9 71
13 71 13 155 35 576 148 1065 448 1457 892 109 124 277 355 311 429 4 8 17 31
28 50 141 233 273 601 324 900 9 52 18 106 20 120 27 147 26 657 0 760 -2 8
-6 38 -10 65 -49 412 -277 942 -562 1305 -190 243 -459 490 -708 651 -359 233
-761 382 -1175 435 -25 3 -56 8 -70 11 -29 6 -515 15 -521 9z m421 -110 c513
-40 1015 -227 1420 -528 406 -302 690 -662 909 -1151 51 -114 146 -426 166
-550 3 -18 10 -57 15 -87 5 -30 12 -82 15 -115 3 -33 8 -80 11 -105 12 -101 6
-399 -11 -515 -2 -16 -7 -57 -11 -89 -5 -47 -62 -313 -77 -361 -2 -5 -11 -37
-21 -70 -50 -167 -165 -419 -272 -596 -114 -189 -271 -386 -430 -541 -112
-108 -135 -128 -264 -226 -343 -261 -720 -430 -1140 -512 -30 -5 -66 -12 -80
-15 -14 -3 -47 -7 -75 -10 -27 -3 -84 -9 -125 -14 -74 -9 -476 -7 -515 2 -11
3 -49 8 -85 12 -36 4 -119 18 -185 32 -66 14 -124 26 -130 27 -5 1 -26 7 -45
13 -19 6 -62 19 -95 28 -101 30 -274 99 -392 158 -365 180 -654 410 -933 743
-135 161 -301 438 -394 658 -64 151 -137 388 -160 520 -3 16 -10 52 -16 80
-10 53 -13 72 -27 191 -10 89 -10 458 0 550 42 389 162 764 350 1090 309 539
815 978 1377 1195 47 18 107 41 134 52 53 20 344 93 411 103 142 21 191 26
280 32 55 3 101 6 102 7 5 4 212 -2 293 -8z"/>
<path d="M4775 8116 c-276 -92 -543 -242 -790 -445 -77 -63 -288 -286 -356
-376 -245 -324 -419 -717 -504 -1140 -13 -66 -27 -140 -30 -165 -3 -25 -8 -56
-10 -70 -20 -128 -19 -138 20 -194 31 -46 37 -62 37 -106 -1 -45 -5 -58 -31
-84 -45 -47 -55 -80 -35 -122 16 -32 55 -72 92 -93 16 -9 16 -12 0 -38 -47
-80 -56 -189 -22 -254 14 -28 93 -99 110 -99 5 0 15 -4 23 -9 12 -8 9 -22 -14
-88 l-27 -79 37 -87 c24 -57 43 -87 54 -88 9 -1 33 -2 55 -3 35 -1 42 -6 81
-61 l43 -60 -49 -54 -49 -54 27 -36 c79 -105 109 -141 119 -141 6 0 31 7 54
15 23 8 48 15 55 15 7 0 32 -32 55 -71 l42 -71 -30 -42 -30 -41 50 -55 c28
-30 75 -81 105 -113 l55 -59 26 24 c14 12 35 34 48 47 20 24 23 24 45 9 13 -9
55 -45 93 -80 l69 -63 -32 -62 c-34 -68 -35 -73 -22 -73 8 0 132 -68 338 -186
l42 -24 41 70 41 70 129 -68 130 -67 0 -87 0 -86 38 -6 c20 -3 60 -8 87 -12
28 -3 61 -7 75 -9 14 -2 52 -7 85 -11 33 -3 63 -8 68 -11 8 -5 9 4 9 205 0 84
-1 154 -3 155 -2 2 -58 18 -124 36 -211 59 -462 165 -652 276 -95 56 -256 164
-300 201 -11 11 -41 35 -65 54 -81 65 -238 232 -313 331 -172 228 -280 467
-354 781 -22 94 -28 124 -37 178 -3 19 -7 46 -10 60 -19 113 -27 508 -12 640
14 119 16 131 44 280 30 159 108 380 199 565 231 469 599 851 1134 1175 73 44
129 80 125 80 -5 -1 -40 -11 -79 -24z"/>
<path d="M6580 8127 c14 -6 31 -17 38 -24 7 -7 20 -13 28 -13 8 0 14 -4 14
-10 0 -5 5 -10 10 -10 25 0 288 -178 420 -284 112 -91 145 -120 262 -239 354
-357 577 -765 677 -1242 11 -55 23 -121 26 -146 3 -26 8 -58 10 -70 22 -105
22 -515 0 -627 -1 -9 -6 -44 -10 -77 -3 -32 -8 -62 -10 -65 -2 -3 -6 -26 -10
-50 -10 -74 -59 -255 -105 -390 -36 -106 -133 -298 -205 -405 -37 -55 -70
-102 -74 -105 -3 -3 -19 -23 -35 -45 -56 -76 -261 -271 -376 -356 -273 -204
-623 -375 -934 -456 l-106 -28 0 -183 c0 -101 3 -181 8 -179 4 3 34 8 67 12
33 3 74 8 90 10 17 3 66 9 109 15 44 6 82 12 84 15 3 3 6 41 6 86 l1 81 125
68 c68 38 128 66 132 64 4 -3 24 -34 44 -70 l36 -65 42 24 c22 13 109 62 191
107 83 46 152 85 154 87 3 2 -9 31 -27 66 l-32 62 33 29 c36 33 92 82 125 110
l23 20 49 -49 49 -48 85 90 c47 49 94 100 105 114 l19 25 -29 42 -29 43 42 67
c23 37 43 69 45 71 1 2 31 -4 64 -14 l62 -19 29 34 c16 19 47 61 69 92 l40 58
-45 48 c-26 27 -46 52 -46 55 0 4 18 33 40 64 31 45 46 58 67 59 16 1 40 2 55
3 24 1 32 10 58 68 44 96 44 102 17 191 l-25 80 40 18 c22 10 57 38 78 62 61
69 65 148 14 262 -17 37 -21 56 -14 58 23 8 81 65 96 94 21 40 10 81 -32 122
-30 29 -34 39 -34 85 0 44 6 61 38 109 35 53 37 61 31 107 -23 177 -29 217
-34 235 -3 8 -7 33 -11 55 -3 22 -23 108 -44 190 -174 684 -565 1229 -1130
1576 -166 102 -428 218 -545 242 -30 6 -30 6 -5 -6z"/>
<path d="M4955 8080 c-9 -30 -22 -40 -55 -40 l-25 -1 27 -20 c23 -17 26 -24
18 -45 -14 -36 -13 -38 16 -19 23 15 27 15 49 1 33 -22 35 -21 25 14 -7 25 -5
32 18 49 24 18 25 21 7 22 -11 1 -26 2 -33 3 -8 0 -19 15 -26 31 l-13 30 -8
-25z"/>
<path d="M6445 8071 c-5 -25 -10 -29 -41 -27 -40 2 -43 -6 -9 -24 28 -15 29
-18 15 -54 -11 -30 -8 -32 25 -10 22 14 26 14 51 -2 l26 -18 -7 33 c-6 27 -3
35 14 48 23 16 20 36 -4 26 -20 -7 -45 14 -45 38 0 30 -18 22 -25 -10z"/>
<path d="M5705 8025 c-27 -77 -25 -75 -74 -75 -49 -1 -49 -2 13 -44 18 -12 18
-14 3 -60 l-17 -48 23 16 c52 38 64 40 97 16 37 -26 44 -23 30 14 -16 43 -12
54 27 81 39 26 36 30 -29 25 -21 -1 -30 5 -37 22 -30 77 -28 75 -36 53z"/>
<path d="M5280 7989 c0 -32 -17 -48 -47 -43 -29 5 -29 -10 -1 -30 20 -14 21
-19 11 -46 -13 -35 -11 -36 22 -14 23 15 27 15 50 0 33 -22 35 -21 22 14 -11
28 -9 32 18 54 l30 24 -33 -3 c-29 -2 -35 2 -52 34 -18 34 -19 35 -20 10z"/>
<path d="M6125 7983 c-8 -33 -11 -35 -52 -36 -29 0 -29 -8 -2 -25 17 -11 20
-20 16 -48 l-6 -34 28 16 c26 15 30 15 56 -2 l28 -18 -8 24 c-4 14 -10 30 -12
36 -2 5 8 16 22 24 29 15 24 25 -12 25 -21 0 -29 7 -39 35 l-12 35 -7 -32z"/>
<path d="M4525 7098 c-12 -9 -36 -44 -54 -78 -43 -80 -53 -185 -26 -275 25
-89 82 -197 142 -272 49 -61 53 -71 53 -119 l0 -52 -77 2 c-94 1 -109 -8 -148
-96 -52 -115 -44 -264 21 -373 24 -42 51 -73 101 -116 27 -24 29 -31 28 -90 0
-35 -4 -69 -7 -74 -10 -18 -20 -74 -20 -119 0 -54 41 -137 83 -168 l31 -23
1051 -1 c579 -1 1055 -2 1060 -3 4 0 7 -7 7 -15 0 -12 -164 -14 -1067 -14
l-1068 0 -145 -50 c-80 -28 -278 -96 -440 -151 -162 -56 -298 -105 -302 -109
-5 -5 9 -25 30 -45 l38 -37 674 0 c752 -1 755 -1 890 -68 85 -41 218 -165 258
-239 31 -58 23 -54 -17 7 -81 125 -234 223 -401 256 -44 9 -1360 12 -1360 3 0
-27 48 -29 676 -30 639 0 650 -1 724 -22 105 -31 196 -85 273 -162 70 -71 136
-183 157 -268 l12 -47 27 78 c56 162 172 292 322 361 132 62 121 61 834 61
639 0 675 2 675 30 0 8 -1324 4 -1376 -4 -140 -21 -300 -125 -403 -261 l-22
-30 18 35 c10 19 54 71 98 116 60 60 98 89 155 116 138 67 130 67 890 68 l685
0 37 37 c27 26 34 39 26 44 -14 8 -135 50 -543 190 -148 50 -274 95 -278 99
-5 4 -9 43 -10 86 l-2 79 -1055 0 -1055 -1 -13 23 c-7 13 -11 27 -8 31 2 4 99
7 216 7 116 0 214 2 218 5 4 3 7 17 8 33 l1 27 -223 0 c-232 0 -239 1 -214 40
8 13 141 15 1072 15 585 0 1068 3 1073 7 8 5 12 273 6 341 -1 4 -25 7 -55 7
l-54 0 0 90 1 91 37 29 c54 43 146 159 172 216 17 38 22 68 22 134 0 95 -19
150 -75 220 l-31 39 -1097 0 c-603 0 -1108 0 -1122 0 -26 1 -41 22 -59 84 l-9
27 230 0 229 0 0 35 c0 41 30 37 -257 37 l-193 0 0 23 c0 39 32 85 60 86 14 0
499 1 1078 1 l1052 0 0 57 0 56 -1122 0 c-1038 0 -1123 -1 -1143 -17z m2268
-536 c30 -51 32 -158 4 -213 l-22 -44 -937 -1 -938 -1 -1 36 c-2 78 1 243 5
249 2 4 424 7 937 7 l933 0 19 -33z m-111 -384 c3 -7 4 -33 3 -58 l-1 -45
-229 0 -230 0 0 -35 0 -35 220 -2 c121 -1 225 -2 230 -2 6 -1 10 -25 10 -53
l0 -53 -1046 -3 -1045 -2 -24 42 c-31 54 -37 157 -13 218 l16 40 1052 0 c833
0 1054 -3 1057 -12z m-1672 -463 c0 -45 -4 -65 -12 -66 -37 -4 -345 -4 -355
-1 -8 3 -12 25 -11 68 l2 64 188 0 188 0 0 -65z m1785 -2 c1 -35 -2 -64 -5
-64 -30 -6 -1703 -2 -1707 4 -3 5 -6 36 -7 68 l-1 59 860 -2 860 -3 0 -62z
m175 -640 c113 -39 246 -85 295 -103 50 -17 105 -36 123 -41 17 -6 32 -11 32
-13 0 -2 -269 -4 -597 -4 -329 0 -618 -3 -641 -7 -123 -18 -250 -80 -339 -164
-56 -52 -106 -114 -124 -154 l-12 -26 -37 57 c-46 72 -134 158 -204 201 -61
37 -169 76 -236 86 -25 4 -314 7 -643 7 -329 0 -596 2 -594 4 2 2 147 54 322
114 175 61 320 111 321 113 1 1 481 2 1066 1 l1063 0 205 -71z"/>
<path d="M3985 4659 c-2 -3 14 -23 36 -45 l40 -39 394 0 c272 0 395 3 395 10
0 6 -16 27 -36 46 l-35 34 -395 0 c-218 0 -397 -2 -399 -6z"/>
<path d="M6589 4623 c-21 -24 -39 -44 -39 -46 0 -1 182 -2 405 -2 l405 0 33
30 c69 65 96 60 -355 60 l-410 0 -39 -42z"/>
<path d="M4170 4464 c0 -3 17 -23 38 -45 l39 -39 392 0 392 0 -38 45 -38 44
-392 1 c-216 0 -393 -3 -393 -6z"/>
<path d="M6417 4425 l-38 -45 395 0 395 0 28 28 c68 68 99 62 -344 62 l-399 0
-37 -45z"/>
<path d="M4360 4270 c0 -3 18 -24 40 -45 l41 -40 374 0 c206 0 375 3 375 8 0
5 -16 25 -35 45 l-34 37 -381 0 c-209 0 -380 -2 -380 -5z"/>
<path d="M6249 4233 c-22 -24 -36 -44 -32 -44 4 -1 177 -2 383 -3 l375 -1 33
29 c73 64 91 61 -335 61 l-384 0 -40 -42z"/>
<path d="M4085 8415 c-46 -49 -64 -62 -75 -55 -24 16 -30 12 -30 -20 0 -40 34
-127 60 -155 17 -18 29 -22 58 -18 47 7 109 36 151 71 l32 27 -30 77 c-17 42
-31 83 -31 91 0 22 -28 47 -53 47 -14 0 -44 -24 -82 -65z m75 -137 c-30 -25
-52 -20 -61 14 -6 23 -2 32 24 54 l31 26 14 -38 c15 -36 14 -38 -8 -56z"/>
<path d="M7738 8424 c-41 -22 -66 -79 -35 -82 6 0 30 -7 52 -16 51 -19 70 -19
132 -1 64 19 72 38 33 77 -29 28 -34 30 -85 24 -34 -3 -55 -2 -55 4 0 13 -10
12 -42 -6z m105 -44 c20 -1 20 -2 5 -13 -9 -8 -32 -11 -54 -9 -35 4 -36 6 -19
19 11 7 26 11 33 8 8 -3 23 -5 35 -5z"/>
<path d="M7590 8288 c0 -12 12 -24 32 -32 29 -13 30 -14 10 -20 -12 -4 -32
-20 -46 -37 -19 -23 -36 -30 -73 -35 -71 -7 -82 -13 -89 -40 -9 -34 25 -69
100 -105 59 -28 83 -27 101 1 8 13 -14 42 -25 35 -12 -7 -112 38 -129 58 -12
15 -11 17 5 18 11 0 53 1 96 2 l76 2 61 62 c34 34 61 66 61 71 0 16 -52 32
-117 35 -56 3 -63 1 -63 -15z m55 -78 c-3 -5 -12 -10 -18 -10 -7 0 -6 4 3 10
19 12 23 12 15 0z"/>
<path d="M2940 8014 c-13 -34 -12 -112 4 -207 16 -100 2 -88 -49 43 -43 109
-61 140 -81 140 -11 0 -13 -7 -8 -27 28 -117 116 -272 171 -301 29 -16 32 -7
23 53 -23 142 -29 224 -20 250 6 16 13 9 47 -41 46 -68 113 -179 113 -187 0
-2 -22 -14 -49 -26 -63 -27 -70 -45 -30 -82 17 -16 37 -29 43 -29 22 0 26 13
10 31 -14 16 -14 18 5 28 43 23 57 14 91 -60 17 -38 30 -73 27 -76 -9 -9 -46
7 -79 35 l-32 27 18 -27 c25 -38 112 -98 143 -98 15 0 -7 103 -36 164 -18 38
-29 72 -24 76 10 10 242 92 342 121 82 24 80 39 -8 39 -70 0 -195 -32 -296
-75 -77 -34 -75 -35 -139 74 -63 107 -128 181 -158 181 -11 0 -23 -11 -28 -26z"/>
<path d="M8523 7975 c-60 -25 -95 -105 -59 -134 11 -10 26 -9 65 3 88 26 119
10 103 -55 -7 -26 -7 -50 -1 -66 7 -20 14 -23 41 -20 41 5 84 -15 91 -44 5
-20 3 -21 -33 -16 -35 4 -113 38 -165 70 -121 75 -143 83 -171 63 -17 -13 -16
-16 9 -68 15 -30 27 -58 27 -61 0 -13 -21 -6 -60 19 -22 15 -45 24 -53 21 -7
-3 -24 1 -38 9 -58 32 -161 0 -200 -62 -24 -39 -28 -118 -8 -156 27 -53 71
-78 134 -78 65 0 118 30 143 80 22 45 18 46 75 -19 44 -50 49 -46 51 46 1 42
-2 53 -16 57 -32 8 -19 22 16 18 73 -8 100 46 55 110 l-22 30 34 -18 c19 -9
56 -34 84 -54 64 -48 106 -69 142 -72 31 -2 73 17 73 33 0 28 -37 83 -77 116
-24 20 -50 52 -58 70 -8 19 -35 54 -60 79 -39 39 -51 65 -46 97 0 4 -2 7 -6 8
-5 0 -15 2 -24 4 -8 1 -29 -3 -46 -10z m-308 -359 c86 -36 64 -130 -33 -143
-108 -14 -111 126 -4 156 1 1 18 -5 37 -13z"/>
<path d="M2760 7795 c-7 -8 -11 -33 -8 -59 l3 -45 -22 27 c-12 15 -22 30 -23
33 -1 17 -30 15 -50 -3 l-21 -20 43 -31 c24 -17 51 -40 61 -52 19 -20 18 -20
-7 -23 l-26 -3 22 -32 c68 -97 110 -66 76 56 -22 76 -17 102 7 41 9 -21 21
-49 26 -60 6 -12 11 -38 12 -58 1 -27 5 -36 18 -36 10 0 21 -5 24 -11 4 -5 12
-8 18 -6 12 4 81 -99 93 -138 11 -34 85 -87 101 -72 2 3 6 13 7 24 3 14 10 17
35 15 43 -4 41 18 -6 55 l-36 30 22 45 c38 79 -3 106 -66 43 -30 -30 -33 -37
-23 -55 6 -12 9 -24 6 -28 -8 -7 -17 2 -20 20 -1 7 -4 18 -8 23 -3 6 -11 29
-17 51 -11 40 -41 69 -41 40 0 -11 -5 -12 -25 -3 -17 8 -29 25 -36 50 -8 32
-13 36 -28 28 -16 -9 -20 -1 -40 64 -26 84 -50 115 -71 90z"/>
<path d="M2674 7552 c-22 -15 -23 -43 -1 -76 12 -19 33 -53 46 -75 31 -51 37
-46 17 12 -9 26 -13 64 -10 91 2 25 0 46 -5 46 -5 0 -15 2 -23 5 -7 3 -18 1
-24 -3z"/>
<path d="M2803 7459 c-29 -11 -29 -30 -2 -55 12 -10 29 -35 39 -55 20 -38 47
-65 56 -56 3 3 1 15 -6 26 -22 42 11 20 89 -59 44 -44 81 -87 83 -97 2 -9 7
-17 12 -17 13 -1 45 64 39 81 -3 8 -42 42 -87 76 -64 49 -88 62 -117 62 -34 0
-37 2 -48 42 -16 52 -29 63 -58 52z"/>
<path d="M2312 7008 c-5 -7 -15 -32 -21 -55 -7 -27 -16 -40 -24 -37 -7 2 -21
-2 -32 -11 -19 -14 -19 -15 16 -47 34 -30 40 -44 68 -162 18 -71 30 -130 28
-133 -3 -2 -39 13 -80 33 -64 32 -78 36 -91 25 -24 -20 -19 -63 9 -93 31 -33
119 -67 195 -74 54 -5 60 -3 74 19 18 26 16 35 -30 154 -27 69 -28 77 -14 68
19 -12 185 -240 181 -250 -1 -5 -5 -57 -7 -115 -3 -58 -9 -127 -15 -155 -19
-96 -20 -117 -9 -146 19 -46 92 -55 98 -12 2 12 -7 35 -19 52 -18 25 -21 37
-14 73 4 24 9 95 11 158 2 63 6 120 8 127 6 16 66 46 74 38 4 -3 7 -41 8 -83
2 -76 -16 -161 -52 -239 -8 -17 -14 -34 -14 -38 0 -18 43 50 75 117 47 100 57
167 37 243 -6 22 -9 49 -7 60 2 11 4 23 4 27 1 3 26 37 57 75 65 79 78 106 64
134 -6 10 -14 19 -17 19 -15 0 -105 -64 -95 -68 14 -4 -27 -82 -44 -82 -6 0
-20 24 -32 53 l-21 52 23 102 c24 109 21 128 -20 113 -31 -12 -51 -65 -58
-155 -11 -127 -16 -168 -24 -198 -7 -27 -9 -26 -68 55 -45 62 -64 97 -73 139
-12 55 -66 176 -94 212 -17 20 -40 22 -55 5z m77 -135 c44 -66 39 -70 -15 -13
-25 27 -43 54 -39 60 9 15 19 6 54 -47z m285 -324 c-11 -18 -21 1 -16 28 5 27
5 27 14 4 4 -13 5 -27 2 -32z"/>
<path d="M8980 6925 c0 -8 12 -21 27 -28 25 -14 23 -14 -38 -13 -181 2 -382
-20 -461 -51 -36 -14 -44 -43 -12 -43 8 0 25 -6 37 -14 12 -8 51 -17 85 -20
35 -4 76 -12 90 -17 15 -6 23 -6 17 -1 -5 5 -44 22 -85 38 l-75 28 45 8 c24 4
87 10 140 13 52 2 104 6 115 9 11 2 45 7 75 11 30 3 62 9 72 11 9 3 29 -6 45
-20 l28 -25 -52 1 c-37 0 -63 -7 -95 -26 -25 -14 -55 -26 -68 -26 l-23 0 24
-19 c38 -30 125 -31 170 -3 43 26 52 27 69 7 18 -21 57 -19 70 4 16 31 12 50
-16 76 -19 18 -23 26 -13 28 58 17 74 24 74 37 0 15 -22 18 -80 8 -17 -3 -58
5 -97 18 -54 18 -68 20 -68 9z"/>
<path d="M8995 6658 c-16 -6 -38 -18 -48 -26 -16 -14 -16 -17 -1 -33 9 -10 29
-21 45 -24 39 -9 45 -23 15 -37 -23 -10 -32 -7 -83 29 -32 22 -73 48 -92 58
-32 16 -34 16 -54 -4 -18 -17 -19 -24 -9 -46 6 -14 10 -25 7 -25 -13 0 -55 25
-55 33 0 9 -74 4 -117 -9 -42 -12 -23 -31 70 -67 157 -63 216 -112 87 -73 -50
15 -108 6 -126 -19 -17 -23 -1 -74 56 -175 26 -47 51 -95 54 -106 15 -50 63
-66 151 -50 60 11 72 15 160 42 79 25 86 29 60 34 -16 3 -54 2 -84 -3 -71 -12
-186 8 -213 37 -10 12 -35 52 -54 90 -38 78 -35 92 21 88 24 -3 40 3 55 18
l22 22 23 -22 c13 -12 29 -35 35 -51 20 -48 70 -30 85 32 5 21 -4 39 -52 100
-31 41 -48 67 -38 59 30 -22 64 -60 70 -80 6 -20 37 -31 54 -20 7 4 11 26 10
53 -2 26 0 49 3 53 6 6 58 -37 104 -86 30 -31 25 -35 -21 -16 -48 21 -42 2 14
-41 45 -35 106 -52 123 -35 19 19 -13 82 -78 150 -56 58 -81 94 -56 78 4 -2
14 -1 22 4 12 7 11 12 -5 30 -43 47 -97 60 -160 38z"/>
<path d="M9202 6598 c-18 -18 -14 -42 11 -66 32 -30 55 -28 63 5 6 21 2 31
-20 50 -31 26 -37 28 -54 11z"/>
<path d="M8930 5422 c0 -13 29 -33 94 -67 52 -28 94 -51 92 -52 -1 -1 -48 -19
-106 -40 -94 -35 -104 -41 -107 -65 -2 -16 1 -28 7 -28 5 0 70 22 144 48 l134
48 39 -19 c44 -23 55 -36 47 -57 -16 -39 -15 -49 6 -60 52 -28 69 49 23 99
-16 16 -86 60 -158 97 -71 37 -149 78 -172 90 -39 22 -43 22 -43 6z"/>
<path d="M2156 5386 c3 -8 34 -22 69 -31 l64 -18 6 -56 c4 -31 9 -63 11 -72 3
-10 -15 -26 -56 -49 -53 -30 -60 -37 -58 -62 1 -15 5 -28 9 -28 10 0 340 187
352 199 6 6 9 13 6 15 -7 7 -381 116 -399 116 -5 0 -7 -6 -4 -14z m244 -83
c33 -10 60 -20 60 -23 0 -3 -29 -20 -65 -38 l-65 -32 0 33 c0 17 -3 42 -6 55
-8 27 -1 27 76 5z"/>
<path d="M8905 5118 c-4 -18 -17 -49 -28 -71 -53 -102 39 -215 132 -163 23 13
27 11 53 -16 24 -25 30 -28 49 -17 19 10 25 7 46 -20 59 -76 133 -2 133 133 0
77 -37 125 -97 126 -41 0 -59 -26 -79 -112 -8 -34 -20 -66 -27 -70 -18 -11
-38 12 -31 36 28 87 -15 161 -93 158 -31 -1 -33 1 -27 23 5 18 2 25 -9 25 -9
0 -18 -13 -22 -32z m335 -74 c17 -20 16 -104 -1 -140 -20 -39 -42 -50 -72 -37
l-25 12 20 78 c27 103 47 126 78 87z m-230 -14 c25 -13 42 -44 34 -63 -21 -56
-164 -35 -164 24 0 39 83 64 130 39z"/>
<path d="M2455 5068 c-49 -9 -81 -15 -120 -25 -16 -4 -32 -7 -35 -8 -3 -1 -24
-5 -47 -9 -36 -6 -43 -12 -43 -31 0 -31 14 -34 85 -18 33 8 71 17 85 19 14 3
32 7 41 10 16 4 69 -46 69 -66 0 -14 -30 -40 -53 -45 -40 -8 -162 -37 -178
-41 -11 -3 -15 -12 -11 -29 2 -14 7 -25 11 -25 25 0 211 45 232 56 40 20 52
64 28 103 -11 18 -26 34 -34 37 -20 8 -19 22 3 26 13 2 16 9 12 28 -5 24 -8
25 -45 18z"/>
<path d="M2615 4830 c-283 -86 -335 -105 -335 -120 1 -37 14 -38 110 -8 52 16
104 27 114 26 10 -2 28 -16 40 -31 31 -42 14 -57 -107 -96 -75 -25 -107 -40
-107 -50 1 -39 14 -39 125 -5 109 33 155 63 155 99 0 28 -23 62 -53 80 l-32
19 93 28 c50 16 92 33 92 39 0 10 -25 40 -32 38 -2 0 -30 -9 -63 -19z"/>
<path d="M8865 4811 c-74 -33 -103 -136 -57 -200 46 -63 111 -86 184 -64 154
44 109 260 -55 270 -29 1 -61 -1 -72 -6z m143 -76 c89 -46 61 -135 -42 -135
-122 1 -199 85 -128 140 23 19 36 21 82 17 30 -3 70 -13 88 -22z"/>
<path d="M8597 4591 c-2 -3 -3 -17 -3 -29 1 -19 10 -27 41 -38 22 -7 110 -40
195 -73 139 -53 156 -57 168 -43 6 9 12 21 12 26 0 12 -409 167 -413 157z"/>
<path d="M2531 4505 c-58 -23 -113 -53 -123 -65 -29 -36 -23 -84 13 -114 17
-14 36 -26 42 -26 7 -1 2 -6 -9 -13 -17 -10 -20 -17 -13 -36 5 -13 15 -21 22
-18 7 3 68 27 135 53 117 47 122 50 117 74 -4 14 -8 26 -9 28 -2 1 -48 -16
-103 -39 -93 -38 -102 -40 -129 -28 -31 15 -44 59 -25 83 6 7 56 31 111 52 88
34 99 41 94 59 -4 11 -9 23 -13 26 -3 3 -53 -13 -110 -36z"/>
<path d="M8698 4388 c-90 -51 -88 -173 3 -240 62 -46 163 -31 204 30 84 123
-76 285 -207 210z m139 -67 c73 -36 88 -92 36 -127 -28 -18 -39 -20 -78 -13
-113 21 -169 95 -114 150 17 17 29 20 69 16 26 -3 65 -14 87 -26z"/>
<path d="M2858 4342 c-24 -5 -23 -39 0 -51 32 -17 58 25 30 46 -7 5 -21 8 -30
5z"/>
<path d="M2608 4222 c-65 -32 -118 -62 -118 -68 0 -5 6 -17 13 -26 11 -14 27
-8 145 49 129 63 133 66 116 84 -9 10 -22 19 -28 18 -6 0 -64 -26 -128 -57z"/>
<path d="M8535 4106 c-19 -28 -21 -50 -12 -89 7 -26 6 -27 -14 -16 -19 10 -25
9 -36 -7 -7 -10 -13 -20 -13 -24 0 -3 28 -21 62 -40 213 -120 191 -110 207
-88 17 26 10 32 -103 96 -75 42 -76 43 -76 82 0 76 33 72 191 -20 l53 -32 17
23 17 23 -101 58 c-118 67 -165 75 -192 34z"/>
<path d="M2778 3997 c-87 -51 -158 -95 -158 -98 0 -4 8 -16 18 -28 17 -20 17
-20 123 43 58 34 125 74 150 87 65 36 71 42 53 68 -8 11 -18 21 -22 20 -4 0
-78 -42 -164 -92z"/>
<path d="M2815 3860 c-66 -45 -120 -82 -122 -83 -1 -1 6 -12 15 -24 l17 -22
89 60 c49 32 93 59 98 59 5 0 22 -7 38 -15 21 -11 30 -23 30 -40 0 -19 -19
-37 -95 -90 -52 -37 -95 -70 -95 -73 0 -4 6 -15 14 -24 11 -16 21 -11 109 47
122 82 145 119 107 168 -11 14 -37 31 -57 38 -34 11 -35 12 -15 23 20 11 20
12 4 34 l-17 22 -120 -80z"/>
<path d="M8419 3888 c-32 -11 -53 -56 -47 -98 3 -16 3 -30 2 -30 -1 0 -39 25
-83 55 l-80 56 -7 -25 c-3 -14 -3 -29 0 -34 5 -9 329 -232 342 -235 4 -1 13 8
21 20 14 21 11 24 -76 83 -89 59 -91 61 -91 100 0 37 10 52 38 56 7 2 56 -26
108 -61 83 -56 96 -61 109 -48 8 8 15 18 15 23 0 11 -156 119 -195 135 -20 8
-39 9 -56 3z"/>
<path d="M3024 3667 c-22 -20 -27 -31 -26 -68 1 -24 3 -54 6 -67 8 -37 -10
-72 -38 -72 -13 0 -29 6 -35 13 -15 19 -20 59 -9 80 7 13 5 17 -12 17 -20 0
-22 -5 -22 -35 0 -43 5 -56 32 -84 17 -16 40 -31 53 -33 28 -5 73 17 87 41 11
22 12 83 1 121 -10 37 -2 68 21 76 38 12 77 -52 56 -90 -7 -12 -4 -16 12 -16
16 0 20 6 20 31 0 88 -85 138 -146 86z"/>
<path d="M8231 3644 c-86 -72 -45 -221 70 -256 110 -32 196 63 147 162 -21 43
-45 56 -33 18 19 -60 17 -77 -8 -102 -31 -31 -57 -32 -113 -7 -74 33 -106 108
-64 146 17 15 24 16 46 7 36 -17 52 -15 59 8 16 51 -53 67 -104 24z"/>
<path d="M3335 3551 c-3 -6 -22 -15 -42 -20 -29 -8 -42 -7 -59 4 -27 17 -39 8
-19 -15 14 -15 9 -23 -57 -81 -92 -81 -107 -99 -108 -126 0 -24 43 -63 71 -63
11 0 19 7 19 15 0 8 -6 15 -14 15 -8 0 -16 7 -19 15 -4 9 23 41 76 89 l81 76
22 -21 c27 -25 44 -7 19 21 -16 17 -15 20 21 53 23 21 33 36 26 41 -6 3 -13 2
-17 -3z"/>
<path d="M3430 3476 c0 -28 28 -42 47 -23 19 19 5 47 -23 47 -19 0 -24 -5 -24
-24z"/>
<path d="M8079 3440 c-64 -18 -105 -72 -96 -128 10 -64 69 -135 123 -148 38
-10 103 2 125 22 31 28 44 87 30 134 -16 54 -28 50 -27 -10 1 -62 -24 -92 -77
-92 -37 0 -97 29 -97 47 0 5 29 39 65 75 36 35 61 68 57 72 -18 18 -79 35
-103 28z m27 -55 c13 -4 10 -12 -17 -43 -45 -51 -56 -57 -69 -31 -23 42 15 95
58 83 6 -2 19 -6 28 -9z"/>
<path d="M3250 3306 c-52 -52 -95 -100 -95 -107 0 -6 7 -16 16 -22 12 -8 36
11 117 89 93 90 118 124 93 124 -5 0 -15 2 -23 5 -7 3 -53 -35 -108 -89z"/>
<path d="M3498 3337 c-32 -19 -41 -20 -68 -10 -28 11 -31 10 -25 -5 14 -33 10
-41 -51 -104 -33 -34 -69 -76 -79 -91 -18 -27 -17 -29 2 -55 13 -17 31 -28 51
-30 35 -4 44 13 12 23 -33 10 -24 31 48 106 37 39 69 75 71 81 2 5 14 0 26
-12 32 -30 54 -16 24 16 l-22 23 32 33 c50 51 41 62 -21 25z"/>
<path d="M7790 3301 c-36 -31 -88 -75 -115 -98 -34 -29 -46 -46 -39 -53 7 -7
24 3 54 30 l45 40 30 -33 c35 -38 130 -147 170 -194 30 -37 40 -40 62 -18 18
19 22 13 -111 169 l-98 116 48 43 c34 31 43 45 33 49 -8 3 -41 -17 -79 -51z"/>
<path d="M3529 3182 c-13 -15 -42 -50 -64 -77 -21 -28 -43 -53 -47 -56 -14 -9
-18 -69 -6 -94 12 -27 48 -45 90 -45 30 0 30 -1 15 -18 -16 -18 -15 -19 9 -32
17 -10 27 -11 32 -4 7 11 33 43 125 154 43 53 46 60 31 74 -8 9 -19 16 -24 16
-4 0 -32 -30 -62 -67 -70 -90 -74 -94 -104 -99 -32 -6 -64 20 -64 52 0 12 29
58 67 104 51 64 64 86 56 98 -16 25 -28 24 -54 -6z"/>
<path d="M3859 3073 c-22 -26 -70 -42 -96 -32 -27 10 -29 3 -8 -21 14 -15 13
-19 -3 -41 -58 -75 -112 -164 -112 -185 0 -31 41 -58 75 -50 30 8 33 26 5 26
-34 0 -24 35 32 113 69 97 64 93 93 77 34 -18 46 -3 16 21 l-24 19 27 40 c14
22 26 42 26 45 0 11 -18 4 -31 -12z"/>
<path d="M3910 2898 c-60 -22 -111 -95 -112 -158 -1 -102 92 -155 188 -108 32
15 48 46 18 33 -11 -5 -36 -10 -57 -13 -71 -8 -111 65 -76 142 l12 25 45 -25
c24 -14 61 -36 81 -50 33 -23 37 -23 49 -7 6 9 12 34 12 55 0 76 -86 133 -160
106z m97 -49 c8 -16 10 -36 6 -47 -8 -20 -9 -20 -62 10 l-54 31 23 19 c32 26
72 20 87 -13z"/>
<path d="M7342 2870 c-12 -11 -25 -32 -28 -45 -7 -28 -19 -32 -28 -10 -5 13
-10 14 -28 4 -13 -6 -24 -13 -26 -14 -2 -2 132 -239 144 -253 4 -6 44 22 44
31 0 4 -17 35 -37 70 -70 115 -69 114 -48 153 20 37 44 43 69 18 9 -8 39 -55
68 -104 51 -87 51 -88 75 -73 12 8 21 18 19 22 -56 101 -121 203 -136 211 -30
16 -64 12 -88 -10z"/>
<path d="M6807 2774 c-10 -11 -9 -42 3 -49 20 -12 51 6 48 28 -3 22 -36 35
-51 21z"/>
<path d="M7073 2731 c-97 -44 -111 -170 -28 -251 64 -62 170 -48 210 30 33 63
17 148 -37 196 -21 19 -34 25 -88 39 -8 3 -34 -4 -57 -14z m85 -51 c38 -36 62
-81 68 -127 3 -26 -1 -39 -20 -58 -14 -14 -31 -25 -38 -25 -49 0 -132 103
-130 162 2 77 64 102 120 48z"/>
<path d="M4675 2711 c-26 -11 -51 -40 -64 -74 -9 -22 -16 -27 -37 -25 -35 4
-42 -18 -9 -26 15 -4 25 -10 23 -14 -19 -46 -81 -242 -78 -245 3 -3 14 -7 26
-11 19 -6 25 4 64 119 25 76 47 124 54 122 39 -15 55 -17 61 -7 4 6 -9 17 -29
25 l-35 15 18 42 c9 23 27 48 39 56 24 16 24 15 36 -40 7 -31 14 -34 40 -15
25 18 13 53 -24 72 -32 17 -55 18 -85 6z"/>
<path d="M4280 2678 c-52 -36 -73 -71 -77 -130 -3 -41 1 -60 16 -85 72 -115
247 -61 266 83 15 111 -114 194 -205 132z m136 -40 c28 -54 -5 -165 -60 -201
-34 -22 -42 -21 -71 8 -61 60 -1 225 81 225 27 0 36 -6 50 -32z"/>
<path d="M6710 2663 c4 -55 0 -73 -20 -90 -27 -23 -25 -35 3 -28 21 6 25 -1
55 -92 37 -113 54 -143 85 -143 30 0 67 27 67 49 0 26 -11 33 -24 15 -21 -28
-41 -4 -73 89 -18 52 -33 97 -33 101 0 3 11 11 25 16 36 14 31 32 -7 28 -30
-3 -34 0 -48 40 -16 48 -32 56 -30 15z"/>
<path d="M6872 2640 c-19 -21 -19 -21 31 -148 27 -70 51 -129 52 -130 7 -8 45
10 45 22 0 11 -98 267 -105 274 -2 2 -12 -6 -23 -18z"/>
<path d="M4921 2576 c-4 -11 -16 -55 -26 -96 -10 -41 -28 -114 -40 -162 l-22
-87 29 -10 c21 -8 30 -7 33 2 7 21 85 348 85 357 0 4 -12 10 -26 13 -19 3 -27
0 -33 -17z"/>
<path d="M5413 2573 c-31 -6 -71 -56 -79 -98 -5 -31 -10 -35 -36 -35 -36 0
-33 -23 4 -30 18 -4 24 -10 22 -25 -2 -11 -6 -49 -9 -85 -3 -36 -8 -86 -10
-112 -5 -47 -4 -48 23 -48 16 0 29 6 29 13 1 22 15 171 19 187 1 8 3 25 3 38
1 18 7 22 36 22 24 0 35 5 35 15 0 10 -10 15 -33 15 l-34 0 7 44 c11 76 47
100 67 45 15 -38 46 -37 51 2 2 21 -3 29 -31 43 -19 9 -37 15 -39 15 -1 -1
-13 -4 -25 -6z"/>
<path d="M6514 2526 c-55 -24 -81 -80 -49 -106 22 -18 47 5 39 36 -8 30 11 54
41 54 26 0 41 -15 49 -50 5 -21 0 -29 -35 -50 -84 -52 -104 -146 -37 -174 38
-16 59 -11 94 21 19 18 29 21 34 12 5 -7 18 -9 32 -6 l25 7 -32 114 c-17 63
-39 124 -49 135 -22 24 -66 27 -112 7z m106 -151 c16 -48 9 -77 -22 -94 -24
-14 -28 -14 -46 3 -27 23 -21 60 14 97 15 16 31 29 35 29 4 0 13 -16 19 -35z"/>
<path d="M5019 2463 c0 -10 -2 -29 -5 -43 -41 -230 -41 -226 -10 -232 28 -6
28 -5 47 121 13 86 22 99 76 115 16 5 26 1 37 -16 15 -24 14 -28 -19 -215 -6
-31 -4 -33 23 -33 l30 0 18 115 c20 130 15 162 -29 183 -23 11 -33 10 -72 -7
l-45 -20 5 22 c5 19 2 23 -24 25 -24 2 -31 -2 -32 -15z"/>
<path d="M6278 2464 c-15 -8 -32 -23 -38 -34 -11 -20 -11 -20 -32 0 -33 30
-83 26 -120 -10 -35 -35 -38 -36 -38 -10 0 20 -15 25 -43 14 -11 -4 -12 -14
-7 -47 10 -50 19 -107 26 -162 11 -81 12 -83 40 -77 25 5 26 7 20 51 -3 25 -8
57 -11 71 -16 87 -14 102 12 126 25 23 54 25 76 4 9 -8 22 -58 32 -130 4 -25
9 -52 10 -60 2 -8 4 -21 4 -28 1 -8 10 -12 24 -10 19 3 22 9 21 43 0 37 -7 92
-18 155 -6 30 11 56 47 69 22 9 30 7 47 -11 11 -12 20 -27 21 -32 0 -6 2 -22
5 -36 2 -14 9 -55 15 -92 10 -61 13 -68 34 -68 31 0 33 11 18 99 -7 42 -16 91
-19 110 -6 40 -45 81 -76 81 -13 -1 -35 -7 -50 -16z"/>
<path d="M5576 2415 c-45 -16 -63 -31 -81 -66 -52 -100 -1 -215 101 -227 83
-9 149 50 157 140 9 105 -83 185 -177 153z m79 -39 c46 -46 47 -168 2 -213
-21 -21 -29 -24 -53 -16 -76 24 -92 214 -22 243 36 14 47 12 73 -14z"/>
<path d="M5885 2405 c-14 -13 -26 -22 -26 -20 -1 3 -2 11 -3 18 0 6 -13 13
-29 15 l-27 3 6 -133 c4 -73 7 -139 7 -145 0 -13 3 -15 35 -17 15 -1 17 11 17
112 0 100 2 115 19 127 12 9 25 11 34 6 37 -21 69 18 40 47 -19 19 -47 14 -73
-13z"/>
</g>
</svg>
